<mxfile host="app.diagrams.net" modified="2022-01-24T10:28:46.531Z" agent="5.0 (Macintosh; Intel Mac OS X 10_15_7) AppleWebKit/605.1.15 (KHTML, like Gecko) Version/15.1 Safari/605.1.15" etag="aB0IhcI3-wbgWSFwzWIE" version="16.4.5" type="github">
  <diagram id="mXKrz4-EB7H1Jir7QN99" name="Page-1">
    <mxGraphModel dx="1106" dy="645" grid="1" gridSize="10" guides="1" tooltips="1" connect="1" arrows="1" fold="1" page="1" pageScale="1" pageWidth="827" pageHeight="1169" math="0" shadow="0">
      <root>
        <mxCell id="0" />
        <mxCell id="1" parent="0" />
        <mxCell id="XBL8jyp10QS4CpAVoSZo-1" value="" style="sketch=0;pointerEvents=1;shadow=0;dashed=0;html=1;strokeColor=none;fillColor=#FF0000;labelPosition=center;verticalLabelPosition=bottom;verticalAlign=top;align=center;outlineConnect=0;shape=mxgraph.veeam2.ram;" vertex="1" parent="1">
          <mxGeometry x="430" y="270" width="200" height="90.75" as="geometry" />
        </mxCell>
        <mxCell id="XBL8jyp10QS4CpAVoSZo-2" value="" style="sketch=0;pointerEvents=1;shadow=0;dashed=0;html=1;strokeColor=none;fillColor=#666666;labelPosition=center;verticalLabelPosition=bottom;verticalAlign=top;outlineConnect=0;align=center;shape=mxgraph.office.devices.hard_disk;" vertex="1" parent="1">
          <mxGeometry x="257.78" y="266.63" width="72.22" height="97.5" as="geometry" />
        </mxCell>
        <mxCell id="XBL8jyp10QS4CpAVoSZo-3" value="" style="curved=1;endArrow=classic;html=1;rounded=0;" edge="1" parent="1" source="XBL8jyp10QS4CpAVoSZo-2" target="XBL8jyp10QS4CpAVoSZo-1">
          <mxGeometry width="50" height="50" relative="1" as="geometry">
            <mxPoint x="230" y="260" as="sourcePoint" />
            <mxPoint x="410" y="297.5" as="targetPoint" />
            <Array as="points">
              <mxPoint x="280" y="258" />
              <mxPoint x="294" y="240" />
            </Array>
          </mxGeometry>
        </mxCell>
        <mxCell id="XBL8jyp10QS4CpAVoSZo-6" value="swap-in&amp;nbsp;" style="text;html=1;align=center;verticalAlign=middle;resizable=0;points=[];autosize=1;strokeColor=none;fillColor=none;" vertex="1" parent="1">
          <mxGeometry x="310" y="246.63" width="60" height="20" as="geometry" />
        </mxCell>
        <mxCell id="XBL8jyp10QS4CpAVoSZo-14" value="" style="pointerEvents=1;shadow=0;dashed=0;html=1;strokeColor=none;fillColor=#FF0000;labelPosition=center;verticalLabelPosition=bottom;verticalAlign=top;align=center;outlineConnect=0;shape=mxgraph.veeam.cpu;fontColor=#FFFFFF;" vertex="1" parent="1">
          <mxGeometry x="690" y="270" width="90" height="80" as="geometry" />
        </mxCell>
        <mxCell id="XBL8jyp10QS4CpAVoSZo-15" value="" style="endArrow=classic;html=1;rounded=0;fontColor=#FFFFFF;" edge="1" parent="1" target="XBL8jyp10QS4CpAVoSZo-14">
          <mxGeometry width="50" height="50" relative="1" as="geometry">
            <mxPoint x="640" y="300" as="sourcePoint" />
            <mxPoint x="440" y="310" as="targetPoint" />
          </mxGeometry>
        </mxCell>
        <mxCell id="XBL8jyp10QS4CpAVoSZo-7" value="swap-out&amp;nbsp;" style="text;html=1;align=center;verticalAlign=middle;resizable=0;points=[];autosize=1;strokeColor=none;fillColor=none;" vertex="1" parent="1">
          <mxGeometry x="340" y="370" width="70" height="20" as="geometry" />
        </mxCell>
        <mxCell id="XBL8jyp10QS4CpAVoSZo-18" value="" style="curved=1;endArrow=none;html=1;rounded=0;" edge="1" parent="1" source="XBL8jyp10QS4CpAVoSZo-1" target="XBL8jyp10QS4CpAVoSZo-2">
          <mxGeometry width="50" height="50" relative="1" as="geometry">
            <mxPoint x="430" y="353.5" as="sourcePoint" />
            <mxPoint x="276.429235890932" y="364.13" as="targetPoint" />
            <Array as="points">
              <mxPoint x="360" y="399" />
              <mxPoint x="300" y="410" />
            </Array>
          </mxGeometry>
        </mxCell>
        <mxCell id="XBL8jyp10QS4CpAVoSZo-20" value="" style="aspect=fixed;html=1;points=[];align=center;image;fontSize=12;image=img/lib/azure2/general/Code.svg;fontColor=#FF0000;fillColor=#FF0000;labelBackgroundColor=#FF0000;imageBackground=#FF0000;" vertex="1" parent="1">
          <mxGeometry x="393.08" y="236.63" width="36.92" height="30" as="geometry" />
        </mxCell>
        <mxCell id="XBL8jyp10QS4CpAVoSZo-21" value="" style="aspect=fixed;html=1;points=[];align=center;image;fontSize=12;image=img/lib/azure2/general/Code.svg;fontColor=#FF0000;fillColor=#FF0000;labelBackgroundColor=#FF0000;imageBackground=#FF0000;" vertex="1" parent="1">
          <mxGeometry x="410" y="380" width="36.92" height="30" as="geometry" />
        </mxCell>
        <mxCell id="XBL8jyp10QS4CpAVoSZo-22" value="" style="aspect=fixed;html=1;points=[];align=center;image;fontSize=12;image=img/lib/azure2/general/Code.svg;fontColor=#FF0000;fillColor=#FF0000;labelBackgroundColor=#FF0000;imageBackground=#FF0000;" vertex="1" parent="1">
          <mxGeometry x="460" y="280" width="36.92" height="30" as="geometry" />
        </mxCell>
        <mxCell id="XBL8jyp10QS4CpAVoSZo-23" value="" style="aspect=fixed;html=1;points=[];align=center;image;fontSize=12;image=img/lib/azure2/general/Code.svg;fontColor=#FF0000;fillColor=#FF0000;labelBackgroundColor=#FF0000;imageBackground=#FF0000;" vertex="1" parent="1">
          <mxGeometry x="511.53999999999996" y="300.38" width="36.92" height="30" as="geometry" />
        </mxCell>
        <mxCell id="XBL8jyp10QS4CpAVoSZo-24" value="" style="aspect=fixed;html=1;points=[];align=center;image;fontSize=12;image=img/lib/azure2/general/Code.svg;fontColor=#FF0000;fillColor=#FF0000;labelBackgroundColor=#FF0000;imageBackground=#FF0000;" vertex="1" parent="1">
          <mxGeometry x="570" y="280" width="36.92" height="30" as="geometry" />
        </mxCell>
        <mxCell id="XBL8jyp10QS4CpAVoSZo-25" value="" style="aspect=fixed;html=1;points=[];align=center;image;fontSize=12;image=img/lib/azure2/general/Code.svg;fontColor=#FF0000;fillColor=#FF0000;labelBackgroundColor=#FF0000;imageBackground=#FF0000;" vertex="1" parent="1">
          <mxGeometry x="474.62" y="310" width="36.92" height="30" as="geometry" />
        </mxCell>
      </root>
    </mxGraphModel>
  </diagram>
</mxfile>
